%TF.GenerationSoftware,KiCad,Pcbnew,8.0.1*%
%TF.CreationDate,2024-05-08T00:25:34+01:00*%
%TF.ProjectId,hexpansion-breadboard-adapter,68657870-616e-4736-996f-6e2d62726561,rev?*%
%TF.SameCoordinates,Original*%
%TF.FileFunction,Copper,L1,Top*%
%TF.FilePolarity,Positive*%
%FSLAX46Y46*%
G04 Gerber Fmt 4.6, Leading zero omitted, Abs format (unit mm)*
G04 Created by KiCad (PCBNEW 8.0.1) date 2024-05-08 00:25:34*
%MOMM*%
%LPD*%
G01*
G04 APERTURE LIST*
G04 Aperture macros list*
%AMRoundRect*
0 Rectangle with rounded corners*
0 $1 Rounding radius*
0 $2 $3 $4 $5 $6 $7 $8 $9 X,Y pos of 4 corners*
0 Add a 4 corners polygon primitive as box body*
4,1,4,$2,$3,$4,$5,$6,$7,$8,$9,$2,$3,0*
0 Add four circle primitives for the rounded corners*
1,1,$1+$1,$2,$3*
1,1,$1+$1,$4,$5*
1,1,$1+$1,$6,$7*
1,1,$1+$1,$8,$9*
0 Add four rect primitives between the rounded corners*
20,1,$1+$1,$2,$3,$4,$5,0*
20,1,$1+$1,$4,$5,$6,$7,0*
20,1,$1+$1,$6,$7,$8,$9,0*
20,1,$1+$1,$8,$9,$2,$3,0*%
G04 Aperture macros list end*
%TA.AperFunction,SMDPad,CuDef*%
%ADD10RoundRect,0.125000X0.125000X-0.875000X0.125000X0.875000X-0.125000X0.875000X-0.125000X-0.875000X0*%
%TD*%
%TA.AperFunction,ComponentPad*%
%ADD11R,1.700000X1.700000*%
%TD*%
%TA.AperFunction,ComponentPad*%
%ADD12O,1.700000X1.700000*%
%TD*%
%TA.AperFunction,ViaPad*%
%ADD13C,0.600000*%
%TD*%
%TA.AperFunction,Conductor*%
%ADD14C,0.200000*%
%TD*%
%ADD15C,0.300000*%
%ADD16C,0.350000*%
G04 APERTURE END LIST*
D10*
%TO.P,J1,1,Pin_1*%
%TO.N,/GND*%
X77770950Y-61250000D03*
%TO.P,J1,2,Pin_2*%
%TO.N,/ALS1*%
X78570950Y-61250000D03*
%TO.P,J1,3,Pin_3*%
%TO.N,/ALS2*%
X79370950Y-61250000D03*
%TO.P,J1,4,Pin_4*%
%TO.N,/SDA_A*%
X80170950Y-61250000D03*
%TO.P,J1,5,Pin_5*%
%TO.N,/SCL_A*%
X80970950Y-61250000D03*
%TO.P,J1,6,Pin_6*%
%TO.N,/A_NDET*%
X81770950Y-61250000D03*
%TO.P,J1,7,Pin_7*%
%TO.N,/ALS3*%
X82570950Y-61250000D03*
%TO.P,J1,8,Pin_8*%
%TO.N,/ALS4*%
X83370950Y-61250000D03*
%TO.P,J1,9,Pin_9*%
%TO.N,/ALS5*%
X84170950Y-61250000D03*
%TO.P,J1,10,Pin_10*%
%TO.N,/GND*%
X84970950Y-61250000D03*
%TO.P,J1,11,Pin_11*%
X84570950Y-53050000D03*
%TO.P,J1,12,Pin_12*%
%TO.N,/AH1*%
X83770950Y-53050000D03*
%TO.P,J1,13,Pin_13*%
%TO.N,/AH2*%
X82970950Y-53050000D03*
%TO.P,J1,14,Pin_14*%
%TO.N,/GND*%
X82170950Y-53050000D03*
%TO.P,J1,15,Pin_15*%
%TO.N,/PORTA_3V3*%
X81370950Y-53050000D03*
%TO.P,J1,16,Pin_16*%
X80570950Y-53050000D03*
%TO.P,J1,17,Pin_17*%
%TO.N,/GND*%
X79770950Y-53050000D03*
%TO.P,J1,18,Pin_18*%
%TO.N,/AH3*%
X78970950Y-53050000D03*
%TO.P,J1,19,Pin_19*%
%TO.N,/AH4*%
X78170950Y-53050000D03*
%TO.P,J1,20,Pin_20*%
%TO.N,/GND*%
X77370950Y-53050000D03*
%TD*%
D11*
%TO.P,J3,1,Pin_1*%
%TO.N,/GND*%
X76072997Y-88264999D03*
D12*
%TO.P,J3,2,Pin_2*%
%TO.N,/AH1*%
X76072997Y-85724999D03*
%TO.P,J3,3,Pin_3*%
%TO.N,/AH2*%
X76072997Y-83184999D03*
%TO.P,J3,4,Pin_4*%
%TO.N,/GND*%
X76072997Y-80644999D03*
%TO.P,J3,5,Pin_5*%
%TO.N,/PORTA_3V3*%
X76072997Y-78104999D03*
%TO.P,J3,6,Pin_6*%
X76072997Y-75564999D03*
%TO.P,J3,7,Pin_7*%
%TO.N,/GND*%
X76072997Y-73024999D03*
%TO.P,J3,8,Pin_8*%
%TO.N,/AH3*%
X76072997Y-70484999D03*
%TO.P,J3,9,Pin_9*%
%TO.N,/AH4*%
X76072997Y-67944999D03*
%TO.P,J3,10,Pin_10*%
%TO.N,/GND*%
X76072997Y-65404999D03*
%TD*%
D11*
%TO.P,J2,1,Pin_1*%
%TO.N,/GND*%
X86514997Y-88265001D03*
D12*
%TO.P,J2,2,Pin_2*%
%TO.N,/ALS1*%
X86514997Y-85725001D03*
%TO.P,J2,3,Pin_3*%
%TO.N,/ALS2*%
X86514997Y-83185001D03*
%TO.P,J2,4,Pin_4*%
%TO.N,/SDA_A*%
X86514997Y-80645001D03*
%TO.P,J2,5,Pin_5*%
%TO.N,/SCL_A*%
X86514997Y-78105001D03*
%TO.P,J2,6,Pin_6*%
%TO.N,/A_NDET*%
X86514997Y-75565001D03*
%TO.P,J2,7,Pin_7*%
%TO.N,/ALS3*%
X86514997Y-73025001D03*
%TO.P,J2,8,Pin_8*%
%TO.N,/ALS4*%
X86514997Y-70485001D03*
%TO.P,J2,9,Pin_9*%
%TO.N,/ALS5*%
X86514997Y-67945001D03*
%TO.P,J2,10,Pin_10*%
%TO.N,/GND*%
X86514997Y-65405001D03*
%TD*%
D13*
%TO.N,/AH1*%
X83820000Y-55118000D03*
%TO.N,/AH2*%
X83058000Y-55118000D03*
%TO.N,/PORTA_3V3*%
X80518000Y-55118000D03*
%TO.N,/AH3*%
X78994000Y-55118000D03*
%TO.N,/AH4*%
X77978000Y-55118000D03*
%TD*%
D14*
%TO.N,/PORTA_3V3*%
X76072997Y-75564999D02*
X76072997Y-78104999D01*
%TO.N,/GND*%
X81535950Y-55880000D02*
X82170950Y-55245000D01*
X77370950Y-53050000D02*
X77370950Y-55480000D01*
X84970950Y-58300950D02*
X83820000Y-57150000D01*
X80645000Y-55880000D02*
X81535950Y-55880000D01*
X82170950Y-55245000D02*
X82170950Y-53050000D01*
X83820000Y-57150000D02*
X83820000Y-56515000D01*
X83820000Y-56515000D02*
X83185000Y-55880000D01*
X79375000Y-55880000D02*
X77770950Y-55880000D01*
X79770950Y-53050000D02*
X79770950Y-55484050D01*
X83185000Y-55880000D02*
X79375000Y-55880000D01*
X77370950Y-55480000D02*
X77770950Y-55880000D01*
X84570950Y-53050000D02*
X84570950Y-55764050D01*
X79770950Y-55484050D02*
X79375000Y-55880000D01*
X77770950Y-55880000D02*
X77770950Y-61250000D01*
X84970950Y-61250000D02*
X84970950Y-58300950D01*
X84455000Y-55880000D02*
X83185000Y-55880000D01*
X84570950Y-55764050D02*
X84455000Y-55880000D01*
%TO.N,/ALS1*%
X78570950Y-77780954D02*
X86514997Y-85725001D01*
X78570950Y-61250000D02*
X78570950Y-77780954D01*
%TO.N,/ALS2*%
X79370950Y-76040954D02*
X86514997Y-83185001D01*
X79370950Y-61250000D02*
X79370950Y-76040954D01*
%TO.N,/SDA_A*%
X80170950Y-74300954D02*
X86514997Y-80645001D01*
X80170950Y-61250000D02*
X80170950Y-74300954D01*
%TO.N,/SCL_A*%
X80970950Y-72560954D02*
X86514997Y-78105001D01*
X80970950Y-61250000D02*
X80970950Y-72560954D01*
%TO.N,/A_NDET*%
X81770950Y-61250000D02*
X81770950Y-70820954D01*
X81770950Y-70820954D02*
X86514997Y-75565001D01*
%TO.N,/ALS3*%
X82570950Y-61250000D02*
X82570950Y-69080954D01*
X82570950Y-69080954D02*
X86514997Y-73025001D01*
%TO.N,/ALS4*%
X83370950Y-61250000D02*
X83370950Y-61409050D01*
X83370950Y-61409050D02*
X83185000Y-61595000D01*
X83370950Y-67340954D02*
X86514997Y-70485001D01*
X83370950Y-61250000D02*
X83370950Y-67340954D01*
%TO.N,/ALS5*%
X84170950Y-61250000D02*
X84170950Y-65600954D01*
X84170950Y-65600954D02*
X86514997Y-67945001D01*
%TO.N,/AH1*%
X83770950Y-55167050D02*
X83770950Y-55195950D01*
X83820000Y-55118000D02*
X83770950Y-55167050D01*
X83770950Y-55068950D02*
X83820000Y-55118000D01*
X83770950Y-53050000D02*
X83770950Y-55068950D01*
%TO.N,/AH2*%
X82970950Y-55030950D02*
X83058000Y-55118000D01*
X82970950Y-53050000D02*
X82970950Y-55030950D01*
X83058000Y-55118000D02*
X83185000Y-55245000D01*
%TO.N,/PORTA_3V3*%
X80570950Y-53050000D02*
X81370950Y-53050000D01*
X80570950Y-55170950D02*
X80645000Y-55245000D01*
X80570950Y-53050000D02*
X80518000Y-55118000D01*
X80518000Y-55118000D02*
X80570950Y-55170950D01*
%TO.N,/AH3*%
X78970950Y-55014050D02*
X78994000Y-54991000D01*
X78970950Y-53050000D02*
X78970950Y-55014050D01*
X78994000Y-55118000D02*
X78867000Y-55118000D01*
X78994000Y-54991000D02*
X78994000Y-55118000D01*
X78867000Y-55118000D02*
X78740000Y-55245000D01*
%TO.N,/AH4*%
X78170950Y-53050000D02*
X78170950Y-55179050D01*
X78170950Y-55179050D02*
X77978000Y-55118000D01*
X78160949Y-54060000D02*
X78105000Y-54060000D01*
X78170950Y-53050000D02*
X78170950Y-54049999D01*
X78170950Y-54049999D02*
X78160949Y-54060000D01*
X77978000Y-55118000D02*
X78105000Y-55245000D01*
%TD*%
%TA.AperFunction,Conductor*%
%TO.N,/GND*%
G36*
X86998437Y-50800194D02*
G01*
X87125420Y-50807326D01*
X87140430Y-50809091D01*
X87396467Y-50855180D01*
X87413184Y-50859409D01*
X87583431Y-50915332D01*
X87659305Y-50940255D01*
X87675284Y-50946767D01*
X87907806Y-51060998D01*
X87922722Y-51069663D01*
X88137135Y-51215069D01*
X88150708Y-51225725D01*
X88342852Y-51399482D01*
X88354809Y-51411912D01*
X88520988Y-51610678D01*
X88531092Y-51624633D01*
X88668068Y-51844543D01*
X88676145Y-51859781D01*
X88781258Y-52096559D01*
X88787145Y-52112780D01*
X88858369Y-52361853D01*
X88861948Y-52378733D01*
X88898058Y-52636365D01*
X88899239Y-52651433D01*
X88901478Y-52780934D01*
X88901497Y-52783083D01*
X88900000Y-89533912D01*
X88899980Y-89536119D01*
X88897711Y-89663315D01*
X88896469Y-89678750D01*
X88860103Y-89931677D01*
X88856342Y-89948964D01*
X88784667Y-90193070D01*
X88778484Y-90209648D01*
X88672798Y-90441066D01*
X88664320Y-90456593D01*
X88526774Y-90670620D01*
X88516171Y-90684784D01*
X88349566Y-90877056D01*
X88337056Y-90889566D01*
X88144784Y-91056171D01*
X88130620Y-91066774D01*
X87916593Y-91204320D01*
X87901066Y-91212798D01*
X87669648Y-91318484D01*
X87653070Y-91324667D01*
X87408964Y-91396342D01*
X87391677Y-91400103D01*
X87138750Y-91436469D01*
X87123315Y-91437711D01*
X86999693Y-91439916D01*
X86996120Y-91439980D01*
X86993910Y-91440000D01*
X75643082Y-91440000D01*
X75640979Y-91439982D01*
X75635048Y-91439881D01*
X75508260Y-91437729D01*
X75492720Y-91436485D01*
X75228941Y-91398564D01*
X75211652Y-91394803D01*
X74956962Y-91320022D01*
X74940386Y-91313840D01*
X74733543Y-91219381D01*
X74698938Y-91203578D01*
X74683411Y-91195100D01*
X74460110Y-91051594D01*
X74445946Y-91040991D01*
X74245343Y-90867168D01*
X74232833Y-90854658D01*
X74059009Y-90654054D01*
X74048407Y-90639890D01*
X73904901Y-90416590D01*
X73896424Y-90401068D01*
X73786160Y-90159615D01*
X73779977Y-90143039D01*
X73722994Y-89948964D01*
X73705194Y-89888341D01*
X73701436Y-89871059D01*
X73673789Y-89678750D01*
X73663513Y-89607274D01*
X73662270Y-89591740D01*
X73661703Y-89558353D01*
X73660018Y-89459023D01*
X73660000Y-89456919D01*
X73660000Y-89162843D01*
X74722997Y-89162843D01*
X74729398Y-89222371D01*
X74729400Y-89222378D01*
X74779642Y-89357085D01*
X74779646Y-89357092D01*
X74865806Y-89472186D01*
X74865809Y-89472189D01*
X74980903Y-89558349D01*
X74980910Y-89558353D01*
X75115617Y-89608595D01*
X75115624Y-89608597D01*
X75175152Y-89614998D01*
X75175169Y-89614999D01*
X75822997Y-89614999D01*
X75822997Y-88698011D01*
X75880004Y-88730924D01*
X76007171Y-88764999D01*
X76138823Y-88764999D01*
X76265990Y-88730924D01*
X76322997Y-88698011D01*
X76322997Y-89614999D01*
X76970825Y-89614999D01*
X76970841Y-89614998D01*
X77030369Y-89608597D01*
X77030376Y-89608595D01*
X77165083Y-89558353D01*
X77165090Y-89558349D01*
X77280184Y-89472189D01*
X77280187Y-89472186D01*
X77366347Y-89357092D01*
X77366351Y-89357085D01*
X77416593Y-89222378D01*
X77416595Y-89222371D01*
X77422996Y-89162843D01*
X77422997Y-89162826D01*
X77422997Y-88514999D01*
X76506009Y-88514999D01*
X76538922Y-88457992D01*
X76572997Y-88330825D01*
X76572997Y-88199173D01*
X76538922Y-88072006D01*
X76506009Y-88014999D01*
X77422997Y-88014999D01*
X77422997Y-87367171D01*
X77422996Y-87367154D01*
X77416595Y-87307626D01*
X77416593Y-87307619D01*
X77366351Y-87172912D01*
X77366347Y-87172905D01*
X77280187Y-87057811D01*
X77280184Y-87057808D01*
X77165090Y-86971648D01*
X77165083Y-86971644D01*
X77030376Y-86921402D01*
X77030369Y-86921400D01*
X76970841Y-86914999D01*
X76570184Y-86914999D01*
X76503145Y-86895314D01*
X76457390Y-86842510D01*
X76447446Y-86773352D01*
X76476471Y-86709796D01*
X76511730Y-86681641D01*
X76659447Y-86602684D01*
X76819407Y-86471409D01*
X76950682Y-86311449D01*
X77048229Y-86128953D01*
X77108297Y-85930933D01*
X77128580Y-85724999D01*
X77108297Y-85519065D01*
X77048229Y-85321045D01*
X76950682Y-85138549D01*
X76819409Y-84978591D01*
X76819407Y-84978588D01*
X76701674Y-84881968D01*
X76659447Y-84847314D01*
X76489551Y-84756501D01*
X76476953Y-84749768D01*
X76476952Y-84749767D01*
X76476951Y-84749767D01*
X76278931Y-84689699D01*
X76278929Y-84689698D01*
X76278931Y-84689698D01*
X76072997Y-84669416D01*
X75867064Y-84689698D01*
X75669040Y-84749768D01*
X75628157Y-84771621D01*
X75486547Y-84847314D01*
X75486545Y-84847315D01*
X75486544Y-84847316D01*
X75326586Y-84978588D01*
X75195314Y-85138546D01*
X75195312Y-85138549D01*
X75156640Y-85210897D01*
X75097766Y-85321042D01*
X75037696Y-85519066D01*
X75017414Y-85724999D01*
X75037696Y-85930931D01*
X75067731Y-86029943D01*
X75097765Y-86128953D01*
X75195312Y-86311449D01*
X75229966Y-86353676D01*
X75326586Y-86471409D01*
X75423206Y-86550701D01*
X75486547Y-86602684D01*
X75634264Y-86681641D01*
X75684108Y-86730604D01*
X75699568Y-86798742D01*
X75675736Y-86864421D01*
X75620178Y-86906790D01*
X75575810Y-86914999D01*
X75175152Y-86914999D01*
X75115624Y-86921400D01*
X75115617Y-86921402D01*
X74980910Y-86971644D01*
X74980903Y-86971648D01*
X74865809Y-87057808D01*
X74865806Y-87057811D01*
X74779646Y-87172905D01*
X74779642Y-87172912D01*
X74729400Y-87307619D01*
X74729398Y-87307626D01*
X74722997Y-87367154D01*
X74722997Y-88014999D01*
X75639985Y-88014999D01*
X75607072Y-88072006D01*
X75572997Y-88199173D01*
X75572997Y-88330825D01*
X75607072Y-88457992D01*
X75639985Y-88514999D01*
X74722997Y-88514999D01*
X74722997Y-89162843D01*
X73660000Y-89162843D01*
X73660000Y-80894999D01*
X74742361Y-80894999D01*
X74799564Y-81108485D01*
X74799567Y-81108491D01*
X74899396Y-81322577D01*
X75034891Y-81516081D01*
X75201914Y-81683104D01*
X75395418Y-81818599D01*
X75609504Y-81918428D01*
X75609513Y-81918432D01*
X75731646Y-81951157D01*
X75791307Y-81987522D01*
X75821836Y-82050368D01*
X75813542Y-82119744D01*
X75769056Y-82173622D01*
X75735549Y-82189592D01*
X75669043Y-82209766D01*
X75538355Y-82279621D01*
X75486547Y-82307314D01*
X75486545Y-82307315D01*
X75486544Y-82307316D01*
X75326586Y-82438588D01*
X75195314Y-82598546D01*
X75195312Y-82598549D01*
X75156640Y-82670897D01*
X75097766Y-82781042D01*
X75037696Y-82979066D01*
X75017414Y-83184999D01*
X75037696Y-83390931D01*
X75067731Y-83489943D01*
X75097765Y-83588953D01*
X75195312Y-83771449D01*
X75229966Y-83813676D01*
X75326586Y-83931409D01*
X75423206Y-84010701D01*
X75486547Y-84062684D01*
X75669043Y-84160231D01*
X75867063Y-84220299D01*
X75867062Y-84220299D01*
X75885526Y-84222117D01*
X76072997Y-84240582D01*
X76278931Y-84220299D01*
X76476951Y-84160231D01*
X76659447Y-84062684D01*
X76819407Y-83931409D01*
X76950682Y-83771449D01*
X77048229Y-83588953D01*
X77108297Y-83390933D01*
X77128580Y-83184999D01*
X77108297Y-82979065D01*
X77048229Y-82781045D01*
X76950682Y-82598549D01*
X76819409Y-82438591D01*
X76819407Y-82438588D01*
X76701674Y-82341968D01*
X76659447Y-82307314D01*
X76489551Y-82216501D01*
X76476953Y-82209768D01*
X76476952Y-82209767D01*
X76476951Y-82209767D01*
X76410444Y-82189592D01*
X76352006Y-82151295D01*
X76323550Y-82087483D01*
X76334110Y-82018416D01*
X76380334Y-81966022D01*
X76414347Y-81951157D01*
X76536480Y-81918432D01*
X76536489Y-81918428D01*
X76750575Y-81818599D01*
X76944079Y-81683104D01*
X77111102Y-81516081D01*
X77246597Y-81322577D01*
X77346426Y-81108491D01*
X77346429Y-81108485D01*
X77403633Y-80894999D01*
X76506009Y-80894999D01*
X76538922Y-80837992D01*
X76572997Y-80710825D01*
X76572997Y-80579173D01*
X76538922Y-80452006D01*
X76506009Y-80394999D01*
X77403633Y-80394999D01*
X77403632Y-80394998D01*
X77346429Y-80181512D01*
X77346426Y-80181506D01*
X77246597Y-79967421D01*
X77246596Y-79967419D01*
X77111110Y-79773925D01*
X77111105Y-79773919D01*
X76944079Y-79606893D01*
X76750575Y-79471398D01*
X76536489Y-79371569D01*
X76536483Y-79371566D01*
X76414346Y-79338840D01*
X76354686Y-79302475D01*
X76324157Y-79239628D01*
X76332452Y-79170252D01*
X76376937Y-79116374D01*
X76410441Y-79100406D01*
X76476951Y-79080231D01*
X76659447Y-78982684D01*
X76819407Y-78851409D01*
X76950682Y-78691449D01*
X77048229Y-78508953D01*
X77108297Y-78310933D01*
X77128580Y-78104999D01*
X77108297Y-77899065D01*
X77048229Y-77701045D01*
X76950682Y-77518549D01*
X76819409Y-77358591D01*
X76819407Y-77358588D01*
X76701674Y-77261968D01*
X76659447Y-77227314D01*
X76491198Y-77137382D01*
X76476950Y-77129766D01*
X76461501Y-77125080D01*
X76403063Y-77086783D01*
X76374606Y-77022970D01*
X76373497Y-77006420D01*
X76373497Y-76663577D01*
X76393182Y-76596538D01*
X76445986Y-76550783D01*
X76461485Y-76544922D01*
X76476951Y-76540231D01*
X76659447Y-76442684D01*
X76819407Y-76311409D01*
X76950682Y-76151449D01*
X77048229Y-75968953D01*
X77108297Y-75770933D01*
X77128580Y-75564999D01*
X77108297Y-75359065D01*
X77048229Y-75161045D01*
X76950682Y-74978549D01*
X76819409Y-74818591D01*
X76819407Y-74818588D01*
X76701674Y-74721968D01*
X76659447Y-74687314D01*
X76489551Y-74596501D01*
X76476953Y-74589768D01*
X76476952Y-74589767D01*
X76476951Y-74589767D01*
X76410444Y-74569592D01*
X76352006Y-74531295D01*
X76323550Y-74467483D01*
X76334110Y-74398416D01*
X76380334Y-74346022D01*
X76414347Y-74331157D01*
X76536480Y-74298432D01*
X76536489Y-74298428D01*
X76750575Y-74198599D01*
X76944079Y-74063104D01*
X77111102Y-73896081D01*
X77246597Y-73702577D01*
X77346426Y-73488491D01*
X77346429Y-73488485D01*
X77403633Y-73274999D01*
X76506009Y-73274999D01*
X76538922Y-73217992D01*
X76572997Y-73090825D01*
X76572997Y-72959173D01*
X76538922Y-72832006D01*
X76506009Y-72774999D01*
X77403633Y-72774999D01*
X77403632Y-72774998D01*
X77346429Y-72561512D01*
X77346426Y-72561506D01*
X77246597Y-72347421D01*
X77246596Y-72347419D01*
X77111110Y-72153925D01*
X77111105Y-72153919D01*
X76944079Y-71986893D01*
X76750575Y-71851398D01*
X76536489Y-71751569D01*
X76536483Y-71751566D01*
X76414346Y-71718840D01*
X76354686Y-71682475D01*
X76324157Y-71619628D01*
X76332452Y-71550252D01*
X76376937Y-71496374D01*
X76410441Y-71480406D01*
X76476951Y-71460231D01*
X76659447Y-71362684D01*
X76819407Y-71231409D01*
X76950682Y-71071449D01*
X77048229Y-70888953D01*
X77108297Y-70690933D01*
X77128580Y-70484999D01*
X77108297Y-70279065D01*
X77048229Y-70081045D01*
X76950682Y-69898549D01*
X76819409Y-69738591D01*
X76819407Y-69738588D01*
X76701674Y-69641968D01*
X76659447Y-69607314D01*
X76489551Y-69516501D01*
X76476953Y-69509768D01*
X76476952Y-69509767D01*
X76476951Y-69509767D01*
X76278931Y-69449699D01*
X76278929Y-69449698D01*
X76278931Y-69449698D01*
X76072997Y-69429416D01*
X75867064Y-69449698D01*
X75669040Y-69509768D01*
X75628157Y-69531621D01*
X75486547Y-69607314D01*
X75486545Y-69607315D01*
X75486544Y-69607316D01*
X75326586Y-69738588D01*
X75195314Y-69898546D01*
X75195312Y-69898549D01*
X75156640Y-69970897D01*
X75097766Y-70081042D01*
X75037696Y-70279066D01*
X75017414Y-70484999D01*
X75037696Y-70690931D01*
X75067731Y-70789943D01*
X75097765Y-70888953D01*
X75195312Y-71071449D01*
X75229966Y-71113676D01*
X75326586Y-71231409D01*
X75423206Y-71310701D01*
X75486547Y-71362684D01*
X75669043Y-71460231D01*
X75735548Y-71480404D01*
X75793986Y-71518701D01*
X75822443Y-71582513D01*
X75811884Y-71651580D01*
X75765660Y-71703974D01*
X75731647Y-71718840D01*
X75609511Y-71751566D01*
X75609504Y-71751569D01*
X75395419Y-71851398D01*
X75395417Y-71851399D01*
X75201923Y-71986885D01*
X75201917Y-71986890D01*
X75034888Y-72153919D01*
X75034883Y-72153925D01*
X74899397Y-72347419D01*
X74899396Y-72347421D01*
X74799567Y-72561506D01*
X74799564Y-72561512D01*
X74742361Y-72774998D01*
X74742361Y-72774999D01*
X75639985Y-72774999D01*
X75607072Y-72832006D01*
X75572997Y-72959173D01*
X75572997Y-73090825D01*
X75607072Y-73217992D01*
X75639985Y-73274999D01*
X74742361Y-73274999D01*
X74799564Y-73488485D01*
X74799567Y-73488491D01*
X74899396Y-73702577D01*
X75034891Y-73896081D01*
X75201914Y-74063104D01*
X75395418Y-74198599D01*
X75609504Y-74298428D01*
X75609513Y-74298432D01*
X75731646Y-74331157D01*
X75791307Y-74367522D01*
X75821836Y-74430368D01*
X75813542Y-74499744D01*
X75769056Y-74553622D01*
X75735549Y-74569592D01*
X75669043Y-74589766D01*
X75538355Y-74659621D01*
X75486547Y-74687314D01*
X75486545Y-74687315D01*
X75486544Y-74687316D01*
X75326586Y-74818588D01*
X75195314Y-74978546D01*
X75195312Y-74978549D01*
X75156640Y-75050897D01*
X75097766Y-75161042D01*
X75037696Y-75359066D01*
X75017414Y-75564999D01*
X75037696Y-75770931D01*
X75066268Y-75865121D01*
X75097765Y-75968953D01*
X75195312Y-76151449D01*
X75199821Y-76156943D01*
X75326586Y-76311409D01*
X75423206Y-76390701D01*
X75486547Y-76442684D01*
X75669043Y-76540231D01*
X75684493Y-76544917D01*
X75742929Y-76583211D01*
X75771387Y-76647023D01*
X75772497Y-76663577D01*
X75772497Y-77006420D01*
X75752812Y-77073459D01*
X75700008Y-77119214D01*
X75684493Y-77125080D01*
X75669043Y-77129766D01*
X75538355Y-77199621D01*
X75486547Y-77227314D01*
X75486545Y-77227315D01*
X75486544Y-77227316D01*
X75326586Y-77358588D01*
X75195314Y-77518546D01*
X75195312Y-77518549D01*
X75156640Y-77590897D01*
X75097766Y-77701042D01*
X75037696Y-77899066D01*
X75017414Y-78104999D01*
X75037696Y-78310931D01*
X75067731Y-78409943D01*
X75097765Y-78508953D01*
X75195312Y-78691449D01*
X75229966Y-78733676D01*
X75326586Y-78851409D01*
X75423206Y-78930701D01*
X75486547Y-78982684D01*
X75669043Y-79080231D01*
X75735548Y-79100404D01*
X75793986Y-79138701D01*
X75822443Y-79202513D01*
X75811884Y-79271580D01*
X75765660Y-79323974D01*
X75731647Y-79338840D01*
X75609511Y-79371566D01*
X75609504Y-79371569D01*
X75395419Y-79471398D01*
X75395417Y-79471399D01*
X75201923Y-79606885D01*
X75201917Y-79606890D01*
X75034888Y-79773919D01*
X75034883Y-79773925D01*
X74899397Y-79967419D01*
X74899396Y-79967421D01*
X74799567Y-80181506D01*
X74799564Y-80181512D01*
X74742361Y-80394998D01*
X74742361Y-80394999D01*
X75639985Y-80394999D01*
X75607072Y-80452006D01*
X75572997Y-80579173D01*
X75572997Y-80710825D01*
X75607072Y-80837992D01*
X75639985Y-80894999D01*
X74742361Y-80894999D01*
X73660000Y-80894999D01*
X73660000Y-65654999D01*
X74742361Y-65654999D01*
X74799564Y-65868485D01*
X74799567Y-65868491D01*
X74899396Y-66082577D01*
X75034891Y-66276081D01*
X75201914Y-66443104D01*
X75395418Y-66578599D01*
X75609504Y-66678428D01*
X75609513Y-66678432D01*
X75731646Y-66711157D01*
X75791307Y-66747522D01*
X75821836Y-66810368D01*
X75813542Y-66879744D01*
X75769056Y-66933622D01*
X75735549Y-66949592D01*
X75669043Y-66969766D01*
X75538355Y-67039621D01*
X75486547Y-67067314D01*
X75486545Y-67067315D01*
X75486544Y-67067316D01*
X75326586Y-67198588D01*
X75195314Y-67358546D01*
X75195312Y-67358549D01*
X75164160Y-67416830D01*
X75097766Y-67541042D01*
X75037696Y-67739066D01*
X75017414Y-67944999D01*
X75037696Y-68150931D01*
X75067731Y-68249943D01*
X75097765Y-68348953D01*
X75195312Y-68531449D01*
X75229966Y-68573676D01*
X75326586Y-68691409D01*
X75423206Y-68770701D01*
X75486547Y-68822684D01*
X75669043Y-68920231D01*
X75867063Y-68980299D01*
X75867062Y-68980299D01*
X75885526Y-68982117D01*
X76072997Y-69000582D01*
X76278931Y-68980299D01*
X76476951Y-68920231D01*
X76659447Y-68822684D01*
X76819407Y-68691409D01*
X76950682Y-68531449D01*
X77048229Y-68348953D01*
X77108297Y-68150933D01*
X77128580Y-67944999D01*
X77108297Y-67739065D01*
X77048229Y-67541045D01*
X76950682Y-67358549D01*
X76898699Y-67295208D01*
X76819407Y-67198588D01*
X76701674Y-67101968D01*
X76659447Y-67067314D01*
X76476951Y-66969767D01*
X76410444Y-66949592D01*
X76352006Y-66911295D01*
X76323550Y-66847483D01*
X76334110Y-66778416D01*
X76380334Y-66726022D01*
X76414347Y-66711157D01*
X76536480Y-66678432D01*
X76536489Y-66678428D01*
X76750575Y-66578599D01*
X76944079Y-66443104D01*
X77111102Y-66276081D01*
X77246597Y-66082577D01*
X77346426Y-65868491D01*
X77346429Y-65868485D01*
X77403633Y-65654999D01*
X76506009Y-65654999D01*
X76538922Y-65597992D01*
X76572997Y-65470825D01*
X76572997Y-65339173D01*
X76538922Y-65212006D01*
X76506009Y-65154999D01*
X77403633Y-65154999D01*
X77403632Y-65154998D01*
X77346429Y-64941512D01*
X77346426Y-64941506D01*
X77246597Y-64727421D01*
X77246596Y-64727419D01*
X77111110Y-64533925D01*
X77111105Y-64533919D01*
X76944079Y-64366893D01*
X76750575Y-64231398D01*
X76536489Y-64131569D01*
X76536483Y-64131566D01*
X76322997Y-64074363D01*
X76322997Y-64971987D01*
X76265990Y-64939074D01*
X76138823Y-64904999D01*
X76007171Y-64904999D01*
X75880004Y-64939074D01*
X75822997Y-64971987D01*
X75822997Y-64074363D01*
X75822996Y-64074363D01*
X75609510Y-64131566D01*
X75609504Y-64131569D01*
X75395419Y-64231398D01*
X75395417Y-64231399D01*
X75201923Y-64366885D01*
X75201917Y-64366890D01*
X75034888Y-64533919D01*
X75034883Y-64533925D01*
X74899397Y-64727419D01*
X74899396Y-64727421D01*
X74799567Y-64941506D01*
X74799564Y-64941512D01*
X74742361Y-65154998D01*
X74742361Y-65154999D01*
X75639985Y-65154999D01*
X75607072Y-65212006D01*
X75572997Y-65339173D01*
X75572997Y-65470825D01*
X75607072Y-65597992D01*
X75639985Y-65654999D01*
X74742361Y-65654999D01*
X73660000Y-65654999D01*
X73660000Y-61500000D01*
X77020950Y-61500000D01*
X77020950Y-62188118D01*
X77023738Y-62223547D01*
X77023739Y-62223553D01*
X77067793Y-62375185D01*
X77067794Y-62375188D01*
X77148176Y-62511108D01*
X77148182Y-62511116D01*
X77259833Y-62622767D01*
X77259841Y-62622773D01*
X77395758Y-62703154D01*
X77395764Y-62703156D01*
X77520949Y-62739525D01*
X77520950Y-62739525D01*
X77520950Y-62739524D01*
X78020950Y-62739524D01*
X78111855Y-62713115D01*
X78181725Y-62713315D01*
X78240395Y-62751257D01*
X78269238Y-62814896D01*
X78270450Y-62832192D01*
X78270450Y-77820516D01*
X78290929Y-77896943D01*
X78290930Y-77896945D01*
X78293074Y-77900657D01*
X78293078Y-77900675D01*
X78293083Y-77900673D01*
X78330489Y-77965463D01*
X78330491Y-77965466D01*
X85525698Y-85160673D01*
X85559183Y-85221996D01*
X85554199Y-85291688D01*
X85547378Y-85306801D01*
X85539767Y-85321040D01*
X85479696Y-85519068D01*
X85459414Y-85725001D01*
X85479696Y-85930933D01*
X85479697Y-85930935D01*
X85539765Y-86128955D01*
X85637312Y-86311451D01*
X85637314Y-86311453D01*
X85768586Y-86471411D01*
X85865206Y-86550703D01*
X85928547Y-86602686D01*
X86076260Y-86681641D01*
X86076264Y-86681643D01*
X86126108Y-86730606D01*
X86141568Y-86798744D01*
X86117736Y-86864423D01*
X86062178Y-86906792D01*
X86017810Y-86915001D01*
X85617152Y-86915001D01*
X85557624Y-86921402D01*
X85557617Y-86921404D01*
X85422910Y-86971646D01*
X85422903Y-86971650D01*
X85307809Y-87057810D01*
X85307806Y-87057813D01*
X85221646Y-87172907D01*
X85221642Y-87172914D01*
X85171400Y-87307621D01*
X85171398Y-87307628D01*
X85164997Y-87367156D01*
X85164997Y-88015001D01*
X86081985Y-88015001D01*
X86049072Y-88072008D01*
X86014997Y-88199175D01*
X86014997Y-88330827D01*
X86049072Y-88457994D01*
X86081985Y-88515001D01*
X85164997Y-88515001D01*
X85164997Y-89162845D01*
X85171398Y-89222373D01*
X85171400Y-89222380D01*
X85221642Y-89357087D01*
X85221646Y-89357094D01*
X85307806Y-89472188D01*
X85307809Y-89472191D01*
X85422903Y-89558351D01*
X85422910Y-89558355D01*
X85557617Y-89608597D01*
X85557624Y-89608599D01*
X85617152Y-89615000D01*
X85617169Y-89615001D01*
X86264997Y-89615001D01*
X86264997Y-88698013D01*
X86322004Y-88730926D01*
X86449171Y-88765001D01*
X86580823Y-88765001D01*
X86707990Y-88730926D01*
X86764997Y-88698013D01*
X86764997Y-89615001D01*
X87412825Y-89615001D01*
X87412841Y-89615000D01*
X87472369Y-89608599D01*
X87472376Y-89608597D01*
X87607083Y-89558355D01*
X87607090Y-89558351D01*
X87722184Y-89472191D01*
X87722187Y-89472188D01*
X87808347Y-89357094D01*
X87808351Y-89357087D01*
X87858593Y-89222380D01*
X87858595Y-89222373D01*
X87864996Y-89162845D01*
X87864997Y-89162828D01*
X87864997Y-88515001D01*
X86948009Y-88515001D01*
X86980922Y-88457994D01*
X87014997Y-88330827D01*
X87014997Y-88199175D01*
X86980922Y-88072008D01*
X86948009Y-88015001D01*
X87864997Y-88015001D01*
X87864997Y-87367173D01*
X87864996Y-87367156D01*
X87858595Y-87307628D01*
X87858593Y-87307621D01*
X87808351Y-87172914D01*
X87808347Y-87172907D01*
X87722187Y-87057813D01*
X87722184Y-87057810D01*
X87607090Y-86971650D01*
X87607083Y-86971646D01*
X87472376Y-86921404D01*
X87472369Y-86921402D01*
X87412841Y-86915001D01*
X87012184Y-86915001D01*
X86945145Y-86895316D01*
X86899390Y-86842512D01*
X86889446Y-86773354D01*
X86918471Y-86709798D01*
X86953730Y-86681643D01*
X86953734Y-86681641D01*
X87101447Y-86602686D01*
X87261407Y-86471411D01*
X87392682Y-86311451D01*
X87490229Y-86128955D01*
X87550297Y-85930935D01*
X87570580Y-85725001D01*
X87550297Y-85519067D01*
X87490229Y-85321047D01*
X87392682Y-85138551D01*
X87340699Y-85075210D01*
X87261407Y-84978590D01*
X87101449Y-84847318D01*
X87101450Y-84847318D01*
X87101447Y-84847316D01*
X86918951Y-84749769D01*
X86720931Y-84689701D01*
X86720929Y-84689700D01*
X86720931Y-84689700D01*
X86514997Y-84669418D01*
X86309064Y-84689700D01*
X86111036Y-84749771D01*
X86096797Y-84757382D01*
X86028394Y-84771621D01*
X85963151Y-84746617D01*
X85950669Y-84735702D01*
X78907769Y-77692802D01*
X78874284Y-77631479D01*
X78871450Y-77605121D01*
X78871450Y-76239567D01*
X78891135Y-76172528D01*
X78943939Y-76126773D01*
X79013097Y-76116829D01*
X79076653Y-76145854D01*
X79102838Y-76177569D01*
X79107575Y-76185774D01*
X79130489Y-76225464D01*
X85525698Y-82620673D01*
X85559183Y-82681996D01*
X85554199Y-82751688D01*
X85547378Y-82766801D01*
X85539767Y-82781040D01*
X85479696Y-82979068D01*
X85459414Y-83185001D01*
X85479696Y-83390933D01*
X85479697Y-83390935D01*
X85539765Y-83588955D01*
X85637312Y-83771451D01*
X85637314Y-83771453D01*
X85768586Y-83931411D01*
X85865206Y-84010703D01*
X85928547Y-84062686D01*
X86111043Y-84160233D01*
X86309063Y-84220301D01*
X86309062Y-84220301D01*
X86327526Y-84222119D01*
X86514997Y-84240584D01*
X86720931Y-84220301D01*
X86918951Y-84160233D01*
X87101447Y-84062686D01*
X87261407Y-83931411D01*
X87392682Y-83771451D01*
X87490229Y-83588955D01*
X87550297Y-83390935D01*
X87570580Y-83185001D01*
X87550297Y-82979067D01*
X87490229Y-82781047D01*
X87392682Y-82598551D01*
X87340699Y-82535210D01*
X87261407Y-82438590D01*
X87101449Y-82307318D01*
X87101450Y-82307318D01*
X87101447Y-82307316D01*
X86918951Y-82209769D01*
X86720931Y-82149701D01*
X86720929Y-82149700D01*
X86720931Y-82149700D01*
X86514997Y-82129418D01*
X86309064Y-82149700D01*
X86111036Y-82209771D01*
X86096797Y-82217382D01*
X86028394Y-82231621D01*
X85963151Y-82206617D01*
X85950669Y-82195702D01*
X79707769Y-75952802D01*
X79674284Y-75891479D01*
X79671450Y-75865121D01*
X79671450Y-74499568D01*
X79691135Y-74432529D01*
X79743939Y-74386774D01*
X79813097Y-74376830D01*
X79876653Y-74405855D01*
X79902835Y-74437566D01*
X79919408Y-74466271D01*
X79930489Y-74485464D01*
X85525698Y-80080673D01*
X85559183Y-80141996D01*
X85554199Y-80211688D01*
X85547378Y-80226801D01*
X85539767Y-80241040D01*
X85479696Y-80439068D01*
X85459414Y-80645001D01*
X85479696Y-80850933D01*
X85509731Y-80949945D01*
X85539765Y-81048955D01*
X85637312Y-81231451D01*
X85637314Y-81231453D01*
X85768586Y-81391411D01*
X85865206Y-81470703D01*
X85928547Y-81522686D01*
X86111043Y-81620233D01*
X86309063Y-81680301D01*
X86309062Y-81680301D01*
X86327526Y-81682119D01*
X86514997Y-81700584D01*
X86720931Y-81680301D01*
X86918951Y-81620233D01*
X87101447Y-81522686D01*
X87261407Y-81391411D01*
X87392682Y-81231451D01*
X87490229Y-81048955D01*
X87550297Y-80850935D01*
X87570580Y-80645001D01*
X87550297Y-80439067D01*
X87490229Y-80241047D01*
X87392682Y-80058551D01*
X87317894Y-79967421D01*
X87261407Y-79898590D01*
X87109500Y-79773925D01*
X87101447Y-79767316D01*
X86918951Y-79669769D01*
X86720931Y-79609701D01*
X86720929Y-79609700D01*
X86720931Y-79609700D01*
X86514997Y-79589418D01*
X86309064Y-79609700D01*
X86111036Y-79669771D01*
X86096797Y-79677382D01*
X86028394Y-79691621D01*
X85963151Y-79666617D01*
X85950669Y-79655702D01*
X80507769Y-74212802D01*
X80474284Y-74151479D01*
X80471450Y-74125121D01*
X80471450Y-72759568D01*
X80491135Y-72692529D01*
X80543939Y-72646774D01*
X80613097Y-72636830D01*
X80676653Y-72665855D01*
X80702835Y-72697566D01*
X80714629Y-72717992D01*
X80730489Y-72745464D01*
X85525698Y-77540673D01*
X85559183Y-77601996D01*
X85554199Y-77671688D01*
X85547378Y-77686801D01*
X85539767Y-77701040D01*
X85479696Y-77899068D01*
X85459414Y-78105001D01*
X85479696Y-78310933D01*
X85479697Y-78310935D01*
X85539765Y-78508955D01*
X85637312Y-78691451D01*
X85637314Y-78691453D01*
X85768586Y-78851411D01*
X85865206Y-78930703D01*
X85928547Y-78982686D01*
X86111043Y-79080233D01*
X86309063Y-79140301D01*
X86309062Y-79140301D01*
X86327526Y-79142119D01*
X86514997Y-79160584D01*
X86720931Y-79140301D01*
X86918951Y-79080233D01*
X87101447Y-78982686D01*
X87261407Y-78851411D01*
X87392682Y-78691451D01*
X87490229Y-78508955D01*
X87550297Y-78310935D01*
X87570580Y-78105001D01*
X87550297Y-77899067D01*
X87490229Y-77701047D01*
X87392682Y-77518551D01*
X87340699Y-77455210D01*
X87261407Y-77358590D01*
X87101449Y-77227318D01*
X87101450Y-77227318D01*
X87101447Y-77227316D01*
X86918951Y-77129769D01*
X86720931Y-77069701D01*
X86720929Y-77069700D01*
X86720931Y-77069700D01*
X86514997Y-77049418D01*
X86309064Y-77069700D01*
X86111036Y-77129771D01*
X86096797Y-77137382D01*
X86028394Y-77151621D01*
X85963151Y-77126617D01*
X85950669Y-77115702D01*
X81307769Y-72472802D01*
X81274284Y-72411479D01*
X81271450Y-72385121D01*
X81271450Y-71019568D01*
X81291135Y-70952529D01*
X81343939Y-70906774D01*
X81413097Y-70896830D01*
X81476653Y-70925855D01*
X81502835Y-70957566D01*
X81519408Y-70986271D01*
X81530489Y-71005464D01*
X85525698Y-75000673D01*
X85559183Y-75061996D01*
X85554199Y-75131688D01*
X85547378Y-75146801D01*
X85539767Y-75161040D01*
X85479696Y-75359068D01*
X85459414Y-75565001D01*
X85479696Y-75770933D01*
X85479697Y-75770935D01*
X85539765Y-75968955D01*
X85637312Y-76151451D01*
X85658746Y-76177569D01*
X85768586Y-76311411D01*
X85865206Y-76390703D01*
X85928547Y-76442686D01*
X86111043Y-76540233D01*
X86309063Y-76600301D01*
X86309062Y-76600301D01*
X86327526Y-76602119D01*
X86514997Y-76620584D01*
X86720931Y-76600301D01*
X86918951Y-76540233D01*
X87101447Y-76442686D01*
X87261407Y-76311411D01*
X87392682Y-76151451D01*
X87490229Y-75968955D01*
X87550297Y-75770935D01*
X87570580Y-75565001D01*
X87550297Y-75359067D01*
X87490229Y-75161047D01*
X87392682Y-74978551D01*
X87340699Y-74915210D01*
X87261407Y-74818590D01*
X87101449Y-74687318D01*
X87101450Y-74687318D01*
X87101447Y-74687316D01*
X86918951Y-74589769D01*
X86720931Y-74529701D01*
X86720929Y-74529700D01*
X86720931Y-74529700D01*
X86514997Y-74509418D01*
X86309064Y-74529700D01*
X86111036Y-74589771D01*
X86096797Y-74597382D01*
X86028394Y-74611621D01*
X85963151Y-74586617D01*
X85950669Y-74575702D01*
X82107769Y-70732802D01*
X82074284Y-70671479D01*
X82071450Y-70645121D01*
X82071450Y-69279568D01*
X82091135Y-69212529D01*
X82143939Y-69166774D01*
X82213097Y-69156830D01*
X82276653Y-69185855D01*
X82302835Y-69217566D01*
X82319408Y-69246271D01*
X82330489Y-69265464D01*
X85525698Y-72460673D01*
X85559183Y-72521996D01*
X85554199Y-72591688D01*
X85547378Y-72606801D01*
X85539767Y-72621040D01*
X85479696Y-72819068D01*
X85459414Y-73025001D01*
X85479696Y-73230933D01*
X85509731Y-73329945D01*
X85539765Y-73428955D01*
X85637312Y-73611451D01*
X85637314Y-73611453D01*
X85768586Y-73771411D01*
X85865206Y-73850703D01*
X85928547Y-73902686D01*
X86111043Y-74000233D01*
X86309063Y-74060301D01*
X86309062Y-74060301D01*
X86327526Y-74062119D01*
X86514997Y-74080584D01*
X86720931Y-74060301D01*
X86918951Y-74000233D01*
X87101447Y-73902686D01*
X87261407Y-73771411D01*
X87392682Y-73611451D01*
X87490229Y-73428955D01*
X87550297Y-73230935D01*
X87570580Y-73025001D01*
X87550297Y-72819067D01*
X87490229Y-72621047D01*
X87392682Y-72438551D01*
X87317894Y-72347421D01*
X87261407Y-72278590D01*
X87109500Y-72153925D01*
X87101447Y-72147316D01*
X86918951Y-72049769D01*
X86720931Y-71989701D01*
X86720929Y-71989700D01*
X86720931Y-71989700D01*
X86514997Y-71969418D01*
X86309064Y-71989700D01*
X86111036Y-72049771D01*
X86096797Y-72057382D01*
X86028394Y-72071621D01*
X85963151Y-72046617D01*
X85950669Y-72035702D01*
X82907769Y-68992802D01*
X82874284Y-68931479D01*
X82871450Y-68905121D01*
X82871450Y-67539568D01*
X82891135Y-67472529D01*
X82943939Y-67426774D01*
X83013097Y-67416830D01*
X83076653Y-67445855D01*
X83102835Y-67477566D01*
X83114897Y-67498457D01*
X83114898Y-67498458D01*
X83130489Y-67525464D01*
X85525698Y-69920673D01*
X85559183Y-69981996D01*
X85554199Y-70051688D01*
X85547378Y-70066801D01*
X85539767Y-70081040D01*
X85479696Y-70279068D01*
X85459414Y-70485001D01*
X85479696Y-70690933D01*
X85479697Y-70690935D01*
X85539765Y-70888955D01*
X85637312Y-71071451D01*
X85637314Y-71071453D01*
X85768586Y-71231411D01*
X85865206Y-71310703D01*
X85928547Y-71362686D01*
X86111043Y-71460233D01*
X86309063Y-71520301D01*
X86309062Y-71520301D01*
X86327526Y-71522119D01*
X86514997Y-71540584D01*
X86720931Y-71520301D01*
X86918951Y-71460233D01*
X87101447Y-71362686D01*
X87261407Y-71231411D01*
X87392682Y-71071451D01*
X87490229Y-70888955D01*
X87550297Y-70690935D01*
X87570580Y-70485001D01*
X87550297Y-70279067D01*
X87490229Y-70081047D01*
X87392682Y-69898551D01*
X87340699Y-69835210D01*
X87261407Y-69738590D01*
X87101449Y-69607318D01*
X87101450Y-69607318D01*
X87101447Y-69607316D01*
X86918951Y-69509769D01*
X86720931Y-69449701D01*
X86720929Y-69449700D01*
X86720931Y-69449700D01*
X86514997Y-69429418D01*
X86309064Y-69449700D01*
X86111036Y-69509771D01*
X86096797Y-69517382D01*
X86028394Y-69531621D01*
X85963151Y-69506617D01*
X85950669Y-69495702D01*
X83707769Y-67252802D01*
X83674284Y-67191479D01*
X83671450Y-67165121D01*
X83671450Y-65799568D01*
X83691135Y-65732529D01*
X83743939Y-65686774D01*
X83813097Y-65676830D01*
X83876653Y-65705855D01*
X83902835Y-65737566D01*
X83919408Y-65766271D01*
X83930489Y-65785464D01*
X85525698Y-67380673D01*
X85559183Y-67441996D01*
X85554199Y-67511688D01*
X85547378Y-67526801D01*
X85539767Y-67541040D01*
X85479696Y-67739068D01*
X85459414Y-67945001D01*
X85479696Y-68150933D01*
X85479697Y-68150935D01*
X85539765Y-68348955D01*
X85637312Y-68531451D01*
X85637314Y-68531453D01*
X85768586Y-68691411D01*
X85865206Y-68770703D01*
X85928547Y-68822686D01*
X86111043Y-68920233D01*
X86309063Y-68980301D01*
X86309062Y-68980301D01*
X86327526Y-68982119D01*
X86514997Y-69000584D01*
X86720931Y-68980301D01*
X86918951Y-68920233D01*
X87101447Y-68822686D01*
X87261407Y-68691411D01*
X87392682Y-68531451D01*
X87490229Y-68348955D01*
X87550297Y-68150935D01*
X87570580Y-67945001D01*
X87550297Y-67739067D01*
X87490229Y-67541047D01*
X87392682Y-67358551D01*
X87305897Y-67252802D01*
X87261407Y-67198590D01*
X87101449Y-67067318D01*
X87101450Y-67067318D01*
X87101447Y-67067316D01*
X86918951Y-66969769D01*
X86852444Y-66949594D01*
X86794006Y-66911297D01*
X86765550Y-66847485D01*
X86776110Y-66778418D01*
X86822334Y-66726024D01*
X86856347Y-66711159D01*
X86978480Y-66678434D01*
X86978489Y-66678430D01*
X87192575Y-66578601D01*
X87386079Y-66443106D01*
X87553102Y-66276083D01*
X87688597Y-66082579D01*
X87788426Y-65868493D01*
X87788429Y-65868487D01*
X87845633Y-65655001D01*
X86948009Y-65655001D01*
X86980922Y-65597994D01*
X87014997Y-65470827D01*
X87014997Y-65339175D01*
X86980922Y-65212008D01*
X86948009Y-65155001D01*
X87845633Y-65155001D01*
X87845632Y-65155000D01*
X87788429Y-64941514D01*
X87788426Y-64941508D01*
X87688597Y-64727423D01*
X87688596Y-64727421D01*
X87553110Y-64533927D01*
X87553105Y-64533921D01*
X87386079Y-64366895D01*
X87192575Y-64231400D01*
X86978489Y-64131571D01*
X86978483Y-64131568D01*
X86764997Y-64074365D01*
X86764997Y-64971989D01*
X86707990Y-64939076D01*
X86580823Y-64905001D01*
X86449171Y-64905001D01*
X86322004Y-64939076D01*
X86264997Y-64971989D01*
X86264997Y-64074365D01*
X86264996Y-64074365D01*
X86051510Y-64131568D01*
X86051504Y-64131571D01*
X85837419Y-64231400D01*
X85837417Y-64231401D01*
X85643923Y-64366887D01*
X85643917Y-64366892D01*
X85476888Y-64533921D01*
X85476883Y-64533927D01*
X85341397Y-64727421D01*
X85341396Y-64727423D01*
X85241567Y-64941508D01*
X85241564Y-64941514D01*
X85184361Y-65155000D01*
X85184361Y-65155001D01*
X86081985Y-65155001D01*
X86049072Y-65212008D01*
X86014997Y-65339175D01*
X86014997Y-65470827D01*
X86049072Y-65597994D01*
X86081985Y-65655001D01*
X85184361Y-65655001D01*
X85241564Y-65868487D01*
X85241568Y-65868498D01*
X85274731Y-65939616D01*
X85285223Y-66008693D01*
X85256703Y-66072477D01*
X85198226Y-66110716D01*
X85128359Y-66111270D01*
X85074668Y-66079701D01*
X84507769Y-65512802D01*
X84474284Y-65451479D01*
X84471450Y-65425121D01*
X84471450Y-62832192D01*
X84491135Y-62765153D01*
X84543939Y-62719398D01*
X84613097Y-62709454D01*
X84630045Y-62713115D01*
X84720950Y-62739525D01*
X84720950Y-61500000D01*
X85220950Y-61500000D01*
X85220950Y-62739525D01*
X85346135Y-62703156D01*
X85346141Y-62703154D01*
X85482058Y-62622773D01*
X85482066Y-62622767D01*
X85593717Y-62511116D01*
X85593723Y-62511108D01*
X85674105Y-62375188D01*
X85674106Y-62375185D01*
X85718160Y-62223553D01*
X85718161Y-62223547D01*
X85720949Y-62188118D01*
X85720950Y-62188105D01*
X85720950Y-61500000D01*
X85220950Y-61500000D01*
X84720950Y-61500000D01*
X84720950Y-59760472D01*
X85220950Y-59760472D01*
X85220950Y-61000000D01*
X85720950Y-61000000D01*
X85720950Y-60311894D01*
X85720949Y-60311881D01*
X85718161Y-60276452D01*
X85718160Y-60276446D01*
X85674106Y-60124814D01*
X85674105Y-60124811D01*
X85593723Y-59988891D01*
X85593717Y-59988883D01*
X85482066Y-59877232D01*
X85482058Y-59877226D01*
X85346138Y-59796844D01*
X85346137Y-59796843D01*
X85220950Y-59760472D01*
X84720950Y-59760472D01*
X84595762Y-59796843D01*
X84595761Y-59796844D01*
X84459841Y-59877226D01*
X84459837Y-59877229D01*
X84348179Y-59988888D01*
X84343396Y-59995055D01*
X84342331Y-59994229D01*
X84297258Y-60036309D01*
X84241605Y-60049500D01*
X84007817Y-60049500D01*
X83992789Y-60051478D01*
X83960405Y-60055741D01*
X83960403Y-60055742D01*
X83960401Y-60055742D01*
X83856369Y-60104253D01*
X83847485Y-60110475D01*
X83846272Y-60108742D01*
X83797297Y-60135480D01*
X83727606Y-60130489D01*
X83695050Y-60109566D01*
X83694415Y-60110475D01*
X83685530Y-60104254D01*
X83685529Y-60104253D01*
X83581495Y-60055741D01*
X83581493Y-60055740D01*
X83581494Y-60055740D01*
X83534090Y-60049500D01*
X83207817Y-60049500D01*
X83192789Y-60051478D01*
X83160405Y-60055741D01*
X83160403Y-60055742D01*
X83160401Y-60055742D01*
X83056369Y-60104253D01*
X83047485Y-60110475D01*
X83046272Y-60108742D01*
X82997297Y-60135480D01*
X82927606Y-60130489D01*
X82895050Y-60109566D01*
X82894415Y-60110475D01*
X82885530Y-60104254D01*
X82885529Y-60104253D01*
X82781495Y-60055741D01*
X82781493Y-60055740D01*
X82781494Y-60055740D01*
X82734090Y-60049500D01*
X82407817Y-60049500D01*
X82392789Y-60051478D01*
X82360405Y-60055741D01*
X82360403Y-60055742D01*
X82360401Y-60055742D01*
X82256369Y-60104253D01*
X82247485Y-60110475D01*
X82246272Y-60108742D01*
X82197297Y-60135480D01*
X82127606Y-60130489D01*
X82095050Y-60109566D01*
X82094415Y-60110475D01*
X82085530Y-60104254D01*
X82085529Y-60104253D01*
X81981495Y-60055741D01*
X81981493Y-60055740D01*
X81981494Y-60055740D01*
X81934090Y-60049500D01*
X81607817Y-60049500D01*
X81592789Y-60051478D01*
X81560405Y-60055741D01*
X81560403Y-60055742D01*
X81560401Y-60055742D01*
X81456369Y-60104253D01*
X81447485Y-60110475D01*
X81446272Y-60108742D01*
X81397297Y-60135480D01*
X81327606Y-60130489D01*
X81295050Y-60109566D01*
X81294415Y-60110475D01*
X81285530Y-60104254D01*
X81285529Y-60104253D01*
X81181495Y-60055741D01*
X81181493Y-60055740D01*
X81181494Y-60055740D01*
X81134090Y-60049500D01*
X80807817Y-60049500D01*
X80792789Y-60051478D01*
X80760405Y-60055741D01*
X80760403Y-60055742D01*
X80760401Y-60055742D01*
X80656369Y-60104253D01*
X80647485Y-60110475D01*
X80646272Y-60108742D01*
X80597297Y-60135480D01*
X80527606Y-60130489D01*
X80495050Y-60109566D01*
X80494415Y-60110475D01*
X80485530Y-60104254D01*
X80485529Y-60104253D01*
X80381495Y-60055741D01*
X80381493Y-60055740D01*
X80381494Y-60055740D01*
X80334090Y-60049500D01*
X80007817Y-60049500D01*
X79992789Y-60051478D01*
X79960405Y-60055741D01*
X79960403Y-60055742D01*
X79960401Y-60055742D01*
X79856369Y-60104253D01*
X79847485Y-60110475D01*
X79846272Y-60108742D01*
X79797297Y-60135480D01*
X79727606Y-60130489D01*
X79695050Y-60109566D01*
X79694415Y-60110475D01*
X79685530Y-60104254D01*
X79685529Y-60104253D01*
X79581495Y-60055741D01*
X79581493Y-60055740D01*
X79581494Y-60055740D01*
X79534090Y-60049500D01*
X79207817Y-60049500D01*
X79192789Y-60051478D01*
X79160405Y-60055741D01*
X79160403Y-60055742D01*
X79160401Y-60055742D01*
X79056369Y-60104253D01*
X79047485Y-60110475D01*
X79046272Y-60108742D01*
X78997297Y-60135480D01*
X78927606Y-60130489D01*
X78895050Y-60109566D01*
X78894415Y-60110475D01*
X78885530Y-60104254D01*
X78885529Y-60104253D01*
X78781495Y-60055741D01*
X78781493Y-60055740D01*
X78781494Y-60055740D01*
X78734090Y-60049500D01*
X78500296Y-60049500D01*
X78433257Y-60029815D01*
X78399221Y-59994493D01*
X78398502Y-59995052D01*
X78393717Y-59988883D01*
X78282066Y-59877232D01*
X78282058Y-59877226D01*
X78146138Y-59796844D01*
X78146137Y-59796843D01*
X78020950Y-59760472D01*
X78020950Y-62739524D01*
X77520950Y-62739524D01*
X77520950Y-61500000D01*
X77020950Y-61500000D01*
X73660000Y-61500000D01*
X73660000Y-61000000D01*
X77020950Y-61000000D01*
X77520950Y-61000000D01*
X77520950Y-59760472D01*
X77395762Y-59796843D01*
X77395761Y-59796844D01*
X77259841Y-59877226D01*
X77259833Y-59877232D01*
X77148182Y-59988883D01*
X77148176Y-59988891D01*
X77067794Y-60124811D01*
X77067793Y-60124814D01*
X77023739Y-60276446D01*
X77023738Y-60276452D01*
X77020950Y-60311881D01*
X77020950Y-61000000D01*
X73660000Y-61000000D01*
X73660000Y-57246082D01*
X75395450Y-57246082D01*
X75432936Y-57434535D01*
X75432939Y-57434547D01*
X75506470Y-57612068D01*
X75506471Y-57612070D01*
X75613229Y-57771844D01*
X75613232Y-57771848D01*
X75749101Y-57907717D01*
X75749105Y-57907720D01*
X75908877Y-58014477D01*
X75908878Y-58014477D01*
X75908879Y-58014478D01*
X75908881Y-58014479D01*
X76086402Y-58088010D01*
X76086407Y-58088012D01*
X76274867Y-58125499D01*
X76274870Y-58125500D01*
X76274872Y-58125500D01*
X76467030Y-58125500D01*
X76467031Y-58125499D01*
X76655493Y-58088012D01*
X76833023Y-58014477D01*
X76992795Y-57907720D01*
X77128670Y-57771845D01*
X77235427Y-57612073D01*
X77308962Y-57434543D01*
X77346449Y-57246082D01*
X84995450Y-57246082D01*
X85032936Y-57434535D01*
X85032939Y-57434547D01*
X85106470Y-57612068D01*
X85106471Y-57612070D01*
X85213229Y-57771844D01*
X85213232Y-57771848D01*
X85349101Y-57907717D01*
X85349105Y-57907720D01*
X85508877Y-58014477D01*
X85508878Y-58014477D01*
X85508879Y-58014478D01*
X85508881Y-58014479D01*
X85686402Y-58088010D01*
X85686407Y-58088012D01*
X85874867Y-58125499D01*
X85874870Y-58125500D01*
X85874872Y-58125500D01*
X86067030Y-58125500D01*
X86067031Y-58125499D01*
X86255493Y-58088012D01*
X86433023Y-58014477D01*
X86592795Y-57907720D01*
X86728670Y-57771845D01*
X86835427Y-57612073D01*
X86908962Y-57434543D01*
X86946450Y-57246078D01*
X86946450Y-57053922D01*
X86946450Y-57053919D01*
X86946449Y-57053917D01*
X86908963Y-56865464D01*
X86908962Y-56865457D01*
X86835427Y-56687927D01*
X86728670Y-56528155D01*
X86728667Y-56528151D01*
X86592798Y-56392282D01*
X86592794Y-56392279D01*
X86433020Y-56285521D01*
X86433018Y-56285520D01*
X86255497Y-56211989D01*
X86255485Y-56211986D01*
X86067031Y-56174500D01*
X86067028Y-56174500D01*
X85874872Y-56174500D01*
X85874869Y-56174500D01*
X85686414Y-56211986D01*
X85686402Y-56211989D01*
X85508881Y-56285520D01*
X85508879Y-56285521D01*
X85349105Y-56392279D01*
X85349101Y-56392282D01*
X85213232Y-56528151D01*
X85213229Y-56528155D01*
X85106471Y-56687929D01*
X85106470Y-56687931D01*
X85032939Y-56865452D01*
X85032936Y-56865464D01*
X84995450Y-57053917D01*
X84995450Y-57246082D01*
X77346449Y-57246082D01*
X77346450Y-57246078D01*
X77346450Y-57053922D01*
X77346450Y-57053919D01*
X77346449Y-57053917D01*
X77308963Y-56865464D01*
X77308962Y-56865457D01*
X77235427Y-56687927D01*
X77128670Y-56528155D01*
X77128667Y-56528151D01*
X76992798Y-56392282D01*
X76992794Y-56392279D01*
X76833020Y-56285521D01*
X76833018Y-56285520D01*
X76655497Y-56211989D01*
X76655485Y-56211986D01*
X76467031Y-56174500D01*
X76467028Y-56174500D01*
X76274872Y-56174500D01*
X76274869Y-56174500D01*
X76086414Y-56211986D01*
X76086402Y-56211989D01*
X75908881Y-56285520D01*
X75908879Y-56285521D01*
X75749105Y-56392279D01*
X75749101Y-56392282D01*
X75613232Y-56528151D01*
X75613229Y-56528155D01*
X75506471Y-56687929D01*
X75506470Y-56687931D01*
X75432939Y-56865452D01*
X75432936Y-56865464D01*
X75395450Y-57053917D01*
X75395450Y-57246082D01*
X73660000Y-57246082D01*
X73660000Y-55118000D01*
X77472353Y-55118000D01*
X77492834Y-55260456D01*
X77538746Y-55360988D01*
X77552623Y-55391373D01*
X77646872Y-55500143D01*
X77767947Y-55577953D01*
X77767950Y-55577954D01*
X77767949Y-55577954D01*
X77906036Y-55618499D01*
X77906038Y-55618500D01*
X77906039Y-55618500D01*
X78049962Y-55618500D01*
X78049962Y-55618499D01*
X78157121Y-55587035D01*
X78188050Y-55577954D01*
X78188050Y-55577953D01*
X78188053Y-55577953D01*
X78309128Y-55500143D01*
X78343099Y-55460937D01*
X78401872Y-55423166D01*
X78471741Y-55423164D01*
X78524490Y-55454461D01*
X78555489Y-55485460D01*
X78624012Y-55525021D01*
X78700438Y-55545500D01*
X78700440Y-55545500D01*
X78708497Y-55546561D01*
X78708205Y-55548778D01*
X78764077Y-55565183D01*
X78783947Y-55577953D01*
X78783948Y-55577953D01*
X78783951Y-55577955D01*
X78922036Y-55618499D01*
X78922038Y-55618500D01*
X78922039Y-55618500D01*
X79065962Y-55618500D01*
X79065962Y-55618499D01*
X79173121Y-55587035D01*
X79204050Y-55577954D01*
X79204050Y-55577953D01*
X79204053Y-55577953D01*
X79325128Y-55500143D01*
X79419377Y-55391373D01*
X79479165Y-55260457D01*
X79499647Y-55118000D01*
X80012353Y-55118000D01*
X80032834Y-55260456D01*
X80078746Y-55360988D01*
X80092623Y-55391373D01*
X80186872Y-55500143D01*
X80307947Y-55577953D01*
X80307950Y-55577954D01*
X80307949Y-55577954D01*
X80446036Y-55618499D01*
X80446038Y-55618500D01*
X80446039Y-55618500D01*
X80589962Y-55618500D01*
X80589962Y-55618499D01*
X80697121Y-55587035D01*
X80728050Y-55577954D01*
X80728050Y-55577953D01*
X80728053Y-55577953D01*
X80849128Y-55500143D01*
X80943377Y-55391373D01*
X81003165Y-55260457D01*
X81023647Y-55118000D01*
X81003165Y-54975543D01*
X80943377Y-54844627D01*
X80943375Y-54844625D01*
X80943374Y-54844622D01*
X80860453Y-54748926D01*
X80831428Y-54685371D01*
X80830207Y-54664561D01*
X80839819Y-54289155D01*
X80861213Y-54222644D01*
X80879017Y-54204594D01*
X80877850Y-54203427D01*
X80883261Y-54198015D01*
X80888132Y-54195354D01*
X80892696Y-54190728D01*
X80894457Y-54189496D01*
X80895673Y-54191235D01*
X80944581Y-54164524D01*
X81014273Y-54169502D01*
X81046847Y-54190434D01*
X81047485Y-54189525D01*
X81056369Y-54195745D01*
X81056371Y-54195747D01*
X81160405Y-54244259D01*
X81207811Y-54250500D01*
X81441602Y-54250499D01*
X81508642Y-54270183D01*
X81542679Y-54305505D01*
X81543398Y-54304948D01*
X81548182Y-54311116D01*
X81659833Y-54422767D01*
X81659841Y-54422773D01*
X81795758Y-54503154D01*
X81795764Y-54503156D01*
X81920949Y-54539525D01*
X81920950Y-54539525D01*
X81920950Y-54539524D01*
X82420950Y-54539524D01*
X82511855Y-54513115D01*
X82581725Y-54513315D01*
X82640395Y-54551257D01*
X82669238Y-54614896D01*
X82670450Y-54632192D01*
X82670450Y-54754723D01*
X82650765Y-54821762D01*
X82640164Y-54835924D01*
X82632624Y-54844625D01*
X82632621Y-54844629D01*
X82572834Y-54975543D01*
X82552353Y-55118000D01*
X82572834Y-55260456D01*
X82618746Y-55360988D01*
X82632623Y-55391373D01*
X82726872Y-55500143D01*
X82847947Y-55577953D01*
X82847950Y-55577954D01*
X82847949Y-55577954D01*
X82986036Y-55618499D01*
X82986038Y-55618500D01*
X82986039Y-55618500D01*
X83129962Y-55618500D01*
X83129962Y-55618499D01*
X83237121Y-55587035D01*
X83268050Y-55577954D01*
X83268050Y-55577953D01*
X83268053Y-55577953D01*
X83371960Y-55511175D01*
X83439000Y-55491491D01*
X83506039Y-55511176D01*
X83506040Y-55511176D01*
X83609947Y-55577953D01*
X83609948Y-55577953D01*
X83609949Y-55577954D01*
X83748036Y-55618499D01*
X83748038Y-55618500D01*
X83748039Y-55618500D01*
X83891962Y-55618500D01*
X83891962Y-55618499D01*
X83999121Y-55587035D01*
X84030050Y-55577954D01*
X84030050Y-55577953D01*
X84030053Y-55577953D01*
X84151128Y-55500143D01*
X84245377Y-55391373D01*
X84305165Y-55260457D01*
X84325647Y-55118000D01*
X84305165Y-54975543D01*
X84245377Y-54844627D01*
X84151128Y-54735857D01*
X84151126Y-54735855D01*
X84145320Y-54729155D01*
X84146660Y-54727993D01*
X84114677Y-54678225D01*
X84114677Y-54608355D01*
X84152452Y-54549577D01*
X84216008Y-54520553D01*
X84268249Y-54524215D01*
X84320949Y-54539525D01*
X84320950Y-54539525D01*
X84320950Y-53300000D01*
X84820950Y-53300000D01*
X84820950Y-54539525D01*
X84946135Y-54503156D01*
X84946141Y-54503154D01*
X85082058Y-54422773D01*
X85082066Y-54422767D01*
X85193717Y-54311116D01*
X85193723Y-54311108D01*
X85274105Y-54175188D01*
X85274106Y-54175185D01*
X85318160Y-54023553D01*
X85318161Y-54023547D01*
X85320949Y-53988118D01*
X85320950Y-53988105D01*
X85320950Y-53300000D01*
X84820950Y-53300000D01*
X84320950Y-53300000D01*
X84320950Y-51560472D01*
X84820950Y-51560472D01*
X84820950Y-52800000D01*
X85320950Y-52800000D01*
X85320950Y-52111894D01*
X85320949Y-52111881D01*
X85318161Y-52076452D01*
X85318160Y-52076446D01*
X85274106Y-51924814D01*
X85274105Y-51924811D01*
X85193723Y-51788891D01*
X85193717Y-51788883D01*
X85082066Y-51677232D01*
X85082058Y-51677226D01*
X84946138Y-51596844D01*
X84946137Y-51596843D01*
X84820950Y-51560472D01*
X84320950Y-51560472D01*
X84195762Y-51596843D01*
X84195761Y-51596844D01*
X84059841Y-51677226D01*
X84059837Y-51677229D01*
X83948179Y-51788888D01*
X83943396Y-51795055D01*
X83942331Y-51794229D01*
X83897258Y-51836309D01*
X83841605Y-51849500D01*
X83607817Y-51849500D01*
X83592789Y-51851478D01*
X83560405Y-51855741D01*
X83560403Y-51855742D01*
X83560401Y-51855742D01*
X83456369Y-51904253D01*
X83447485Y-51910475D01*
X83446272Y-51908742D01*
X83397297Y-51935480D01*
X83327606Y-51930489D01*
X83295050Y-51909566D01*
X83294415Y-51910475D01*
X83285530Y-51904254D01*
X83285529Y-51904253D01*
X83181495Y-51855741D01*
X83181493Y-51855740D01*
X83181494Y-51855740D01*
X83134090Y-51849500D01*
X82900296Y-51849500D01*
X82833257Y-51829815D01*
X82799221Y-51794493D01*
X82798502Y-51795052D01*
X82793717Y-51788883D01*
X82682066Y-51677232D01*
X82682058Y-51677226D01*
X82546138Y-51596844D01*
X82546137Y-51596843D01*
X82420950Y-51560472D01*
X82420950Y-54539524D01*
X81920950Y-54539524D01*
X81920950Y-51560472D01*
X81795762Y-51596843D01*
X81795761Y-51596844D01*
X81659841Y-51677226D01*
X81659837Y-51677229D01*
X81548179Y-51788888D01*
X81543396Y-51795055D01*
X81542331Y-51794229D01*
X81497258Y-51836309D01*
X81441605Y-51849500D01*
X81207817Y-51849500D01*
X81192789Y-51851478D01*
X81160405Y-51855741D01*
X81160403Y-51855742D01*
X81160401Y-51855742D01*
X81056369Y-51904253D01*
X81047485Y-51910475D01*
X81046272Y-51908742D01*
X80997297Y-51935480D01*
X80927606Y-51930489D01*
X80895050Y-51909566D01*
X80894415Y-51910475D01*
X80885530Y-51904254D01*
X80885529Y-51904253D01*
X80781495Y-51855741D01*
X80781493Y-51855740D01*
X80781494Y-51855740D01*
X80734090Y-51849500D01*
X80500296Y-51849500D01*
X80433257Y-51829815D01*
X80399221Y-51794493D01*
X80398502Y-51795052D01*
X80393717Y-51788883D01*
X80282066Y-51677232D01*
X80282058Y-51677226D01*
X80146138Y-51596844D01*
X80146137Y-51596843D01*
X80020950Y-51560472D01*
X80020950Y-54539525D01*
X80067782Y-54525920D01*
X80137652Y-54526119D01*
X80196321Y-54564061D01*
X80225165Y-54627700D01*
X80215024Y-54696829D01*
X80191513Y-54728143D01*
X80192679Y-54729154D01*
X80092625Y-54844622D01*
X80092622Y-54844628D01*
X80032834Y-54975543D01*
X80012353Y-55118000D01*
X79499647Y-55118000D01*
X79479165Y-54975543D01*
X79419377Y-54844627D01*
X79419375Y-54844625D01*
X79419374Y-54844622D01*
X79325133Y-54735862D01*
X79325130Y-54735859D01*
X79325128Y-54735857D01*
X79325125Y-54735855D01*
X79318428Y-54730052D01*
X79319989Y-54728249D01*
X79282653Y-54685156D01*
X79271450Y-54633651D01*
X79271450Y-54632192D01*
X79291135Y-54565153D01*
X79343939Y-54519398D01*
X79413097Y-54509454D01*
X79430045Y-54513115D01*
X79520950Y-54539525D01*
X79520950Y-51560472D01*
X79395762Y-51596843D01*
X79395761Y-51596844D01*
X79259841Y-51677226D01*
X79259837Y-51677229D01*
X79148179Y-51788888D01*
X79143396Y-51795055D01*
X79142331Y-51794229D01*
X79097258Y-51836309D01*
X79041605Y-51849500D01*
X78807817Y-51849500D01*
X78792789Y-51851478D01*
X78760405Y-51855741D01*
X78760403Y-51855742D01*
X78760401Y-51855742D01*
X78656369Y-51904253D01*
X78647485Y-51910475D01*
X78646272Y-51908742D01*
X78597297Y-51935480D01*
X78527606Y-51930489D01*
X78495050Y-51909566D01*
X78494415Y-51910475D01*
X78485530Y-51904254D01*
X78485529Y-51904253D01*
X78381495Y-51855741D01*
X78381493Y-51855740D01*
X78381494Y-51855740D01*
X78334090Y-51849500D01*
X78100296Y-51849500D01*
X78033257Y-51829815D01*
X77999221Y-51794493D01*
X77998502Y-51795052D01*
X77993717Y-51788883D01*
X77882066Y-51677232D01*
X77882058Y-51677226D01*
X77746138Y-51596844D01*
X77746137Y-51596843D01*
X77620950Y-51560472D01*
X77620950Y-54539525D01*
X77633368Y-54548849D01*
X77675159Y-54604842D01*
X77680045Y-54674541D01*
X77652629Y-54729212D01*
X77552625Y-54844622D01*
X77552622Y-54844628D01*
X77492834Y-54975543D01*
X77472353Y-55118000D01*
X73660000Y-55118000D01*
X73660000Y-53300000D01*
X76620950Y-53300000D01*
X76620950Y-53988118D01*
X76623738Y-54023547D01*
X76623739Y-54023553D01*
X76667793Y-54175185D01*
X76667794Y-54175188D01*
X76748176Y-54311108D01*
X76748182Y-54311116D01*
X76859833Y-54422767D01*
X76859841Y-54422773D01*
X76995758Y-54503154D01*
X76995764Y-54503156D01*
X77120949Y-54539525D01*
X77120950Y-54539525D01*
X77120950Y-53300000D01*
X76620950Y-53300000D01*
X73660000Y-53300000D01*
X73660000Y-52800000D01*
X76620950Y-52800000D01*
X77120950Y-52800000D01*
X77120950Y-51560472D01*
X76995762Y-51596843D01*
X76995761Y-51596844D01*
X76859841Y-51677226D01*
X76859833Y-51677232D01*
X76748182Y-51788883D01*
X76748176Y-51788891D01*
X76667794Y-51924811D01*
X76667793Y-51924814D01*
X76623739Y-52076446D01*
X76623738Y-52076452D01*
X76620950Y-52111881D01*
X76620950Y-52800000D01*
X73660000Y-52800000D01*
X73660000Y-52706089D01*
X73660020Y-52703878D01*
X73660955Y-52651433D01*
X73662288Y-52576675D01*
X73663529Y-52561259D01*
X73699896Y-52308319D01*
X73703657Y-52291035D01*
X73760760Y-52096559D01*
X73775334Y-52046922D01*
X73781510Y-52030362D01*
X73887203Y-51798927D01*
X73895675Y-51783412D01*
X74033232Y-51569368D01*
X74043820Y-51555224D01*
X74210438Y-51362937D01*
X74222937Y-51350438D01*
X74415224Y-51183820D01*
X74429368Y-51173232D01*
X74643412Y-51035675D01*
X74658927Y-51027203D01*
X74890362Y-50921510D01*
X74906922Y-50915334D01*
X75151035Y-50843656D01*
X75168319Y-50839896D01*
X75421259Y-50803529D01*
X75436675Y-50802288D01*
X75563879Y-50800019D01*
X75566088Y-50800000D01*
X86991552Y-50800000D01*
X86998437Y-50800194D01*
G37*
%TD.AperFunction*%
%TD*%
D15*
X83820000Y-55118000D03*
X83058000Y-55118000D03*
X80518000Y-55118000D03*
X78994000Y-55118000D03*
X77978000Y-55118000D03*
D16*
X76370950Y-57150000D03*
X85970950Y-57150000D03*
X76072997Y-88264999D03*
X76072997Y-85724999D03*
X76072997Y-83184999D03*
X76072997Y-80644999D03*
X76072997Y-78104999D03*
X76072997Y-75564999D03*
X76072997Y-73024999D03*
X76072997Y-70484999D03*
X76072997Y-67944999D03*
X76072997Y-65404999D03*
X86514997Y-88265001D03*
X86514997Y-85725001D03*
X86514997Y-83185001D03*
X86514997Y-80645001D03*
X86514997Y-78105001D03*
X86514997Y-75565001D03*
X86514997Y-73025001D03*
X86514997Y-70485001D03*
X86514997Y-67945001D03*
X86514997Y-65405001D03*
M02*
