M48
METRIC,TZ
T1C0.300
T2C1.000
%
G90
G05
T1
X77978Y-55118
X78994Y-55118
X80518Y-55118
X83058Y-55118
X83820Y-55118
T2
X76073Y-65405
X76073Y-67945
X76073Y-70485
X76073Y-73025
X76073Y-75565
X76073Y-78105
X76073Y-80645
X76073Y-83185
X76073Y-85725
X76073Y-88265
X86515Y-65405
X86515Y-67945
X86515Y-70485
X86515Y-73025
X86515Y-75565
X86515Y-78105
X86515Y-80645
X86515Y-83185
X86515Y-85725
X86515Y-88265
M30
