<?xml version="1.0" encoding="UTF-8" standalone="no"?>
<svg
   version="1.1"
   width="100mm"
   height="100mm"
   viewBox="0 0 100 99.999998"
   id="svg762"
   sodipodi:docname="hexpansion_outline.svg"
   inkscape:version="1.2.2 (732a01da63, 2022-12-09)"
   xmlns:inkscape="http://www.inkscape.org/namespaces/inkscape"
   xmlns:sodipodi="http://sodipodi.sourceforge.net/DTD/sodipodi-0.dtd"
   xmlns="http://www.w3.org/2000/svg"
   xmlns:svg="http://www.w3.org/2000/svg"
   xmlns:rdf="http://www.w3.org/1999/02/22-rdf-syntax-ns#"
   xmlns:cc="http://creativecommons.org/ns#"
   xmlns:dc="http://purl.org/dc/elements/1.1/">
  <defs
     id="defs766" />
  <sodipodi:namedview
     id="namedview764"
     pagecolor="#ffffff"
     bordercolor="#000000"
     borderopacity="0.25"
     inkscape:showpageshadow="2"
     inkscape:pageopacity="0.0"
     inkscape:pagecheckerboard="0"
     inkscape:deskcolor="#d1d1d1"
     inkscape:document-units="mm"
     showgrid="false"
     inkscape:zoom="2.8284271"
     inkscape:cx="216.37467"
     inkscape:cy="136.29483"
     inkscape:window-width="1649"
     inkscape:window-height="1259"
     inkscape:window-x="674"
     inkscape:window-y="426"
     inkscape:window-maximized="0"
     inkscape:current-layer="svg762" />
  <title
     id="title2">SVG Image created as hexpansion-User_Comments.svg date 2024/03/18 14:37:45 </title>
  <desc
     id="desc4">Image generated by PCBNEW </desc>
  <g
     style="fill:#000000;fill-opacity:1;stroke:#000000;stroke-linecap:round;stroke-linejoin:round;stroke-opacity:1"
     id="g6" />
  <path
     d="m 64.341254,4.8551198 h 27.8"
     id="path8"
     style="fill:none;stroke:#5994dc;stroke-width:0.15;stroke-linecap:round;stroke-linejoin:round;stroke-opacity:1" />
  <path
     d="m 64.366254,80.180113 -41.225,-19.25"
     id="path10"
     style="fill:none;stroke:#5994dc;stroke-width:0.15;stroke-linecap:round;stroke-linejoin:round;stroke-opacity:1" />
  <path
     d="m 64.366254,80.180113 h 27.8"
     id="path12"
     style="fill:none;stroke:#5994dc;stroke-width:0.15;stroke-linecap:round;stroke-linejoin:round;stroke-opacity:1" />
  <path
     d="m 23.116254,24.105113 41.225,-19.2499932"
     id="path14"
     style="fill:none;stroke:#5994dc;stroke-width:0.15;stroke-linecap:round;stroke-linejoin:round;stroke-opacity:1" />
  <path
     d="m 92.141254,4.8551198 0.025,75.3249932"
     id="path16"
     style="fill:none;stroke:#5994dc;stroke-width:0.15;stroke-linecap:round;stroke-linejoin:round;stroke-opacity:1" />
  <circle
     cx="19.616249"
     cy="29.980101"
     r="2.2"
     id="circle694"
     style="fill:none;stroke:#5994dc;stroke-width:0.15;stroke-linecap:round;stroke-linejoin:round;stroke-opacity:1" />
  <circle
     cx="19.616249"
     cy="54.980145"
     r="2.2"
     id="circle696"
     style="fill:none;stroke:#5994dc;stroke-width:0.15;stroke-linecap:round;stroke-linejoin:round;stroke-opacity:1" />
  <g
     style="fill:none;stroke:#d0d2cd;stroke-width:0.05;stroke-linecap:round;stroke-linejoin:round;stroke-opacity:1"
     id="g704" />
  <g
     style="fill:none;stroke:#d0d2cd;stroke-width:0.1;stroke-linecap:round;stroke-linejoin:round;stroke-opacity:1"
     id="g708" />
  <g
     style="fill:none;stroke:#d0d2cd;stroke-width:0.05;stroke-linecap:round;stroke-linejoin:round;stroke-opacity:1"
     id="g724" />
  <g
     style="fill:none;stroke:#d0d2cd;stroke-width:0.1;stroke-linecap:round;stroke-linejoin:round;stroke-opacity:1"
     id="g728"
     transform="translate(7.0662641,4.7801198)" />
  <g
     style="fill:none;stroke:#000000;stroke-width:0.05;stroke-linecap:round;stroke-linejoin:round;stroke-opacity:1"
     id="g760"
     transform="translate(7.0662641,4.7801198)">
    <path
       id="path740"
       sodipodi:type="inkscape:offset"
       inkscape:radius="0"
       inkscape:original="M 0.30078125 31.699219 L 4.5507812 31.699219 L 0.30078125 31.699219 z "
       d="M 0.30078125,31.699219 H 4.5507812 Z"
       style="stroke:#000000" />
    <path
       d="m 4.55,31.7 c 0.3865993,0 0.7,0.313401 0.7,0.7 v 0 c 0,0.386599 -0.3134007,0.7 -0.7,0.7 v 0 H -1.5 v 0 c -0.1104569,0 -0.2,0.08954 -0.2,0.2 v 0 8.8 0 c 0,0.11046 0.089543,0.2 0.2,0.2 v 0 h 6.05 v 0 c 0.3865993,0 0.7,0.313401 0.7,0.7 v 0 c 0,0.386599 -0.3134007,0.7 -0.7,0.7 v 0 H 0.3 v 0 c -0.13807119,0 -0.25,0.111929 -0.25,0.25 v 0 2.4102 0 c -2.665e-5,0.357292 0.19057584,0.687454 0.5,0.8661 v 0 l 15,8.6602 v 0 c 0.309401,0.178633 0.690599,0.178633 1,0 v 0 l 15,-8.6602 v -1e-4 c 0.309393,-0.178628 0.499991,-0.508743 0.5,-0.866 v 0 -17.3205 0 c -9e-6,-0.357257 -0.190607,-0.687372 -0.5,-0.866 v 0 l -15,-8.6602 v 0 c -0.309401,-0.178633 -0.690599,-0.178633 -1,0 v 0 l -15,8.6602 v 10e-5 c -0.30936228,0.17861 -0.4999552,0.508679 -0.5,0.8659 v 0 2.4103 0 c 0,0.138071 0.11192881,0.25 0.25,0.25 z"
       id="path756"
       sodipodi:nodetypes="ccccccccccccccccccccccccccccccccccccccccccccccccccc"
       style="stroke:#000000" />
  </g>
  <metadata
     id="metadata1398">
    <rdf:RDF>
      <cc:Work
         rdf:about="">
        <dc:title>SVG Image created as hexpansion-User_Comments.svg date 2024/03/18 14:37:45 </dc:title>
      </cc:Work>
    </rdf:RDF>
  </metadata>
</svg>
